<svg id="Warstwa_2" data-name="Warstwa 2" xmlns="http://www.w3.org/2000/svg" viewBox="0 0 1392.22 518.84"><title>LOGO NEW bez napisu</title><path d="M770.5,24.4c19.3,5.1,35.7,21.6,42.6,43a3.1,3.1,0,0,0,2.7,2.3,2.36,2.36,0,0,0,2.1-1.1c11.1-16.5,30-23.6,49.3-18.5a2.22,2.22,0,0,0,2.9-1.6,3.73,3.73,0,0,0-1-3.5,6,6,0,0,0-.8-.8c-15-14.8-36.5-14.3-48,1.1a2.25,2.25,0,0,1-3.1.6,3.89,3.89,0,0,1-1.6-2,6.89,6.89,0,0,0-.4-1c-8-20.4-28.5-31.3-45.6-24.4l-.2.1a3,3,0,0,0-1,4A2.94,2.94,0,0,0,770.5,24.4Z" transform="translate(0.05 0.05)"/><path d="M813.7,96.8c-9.9-13.6-26.9-16.8-37.9-7a2.29,2.29,0,0,0-.7,2.1,2.57,2.57,0,0,0,2.4,2.3c14.9-1,30.1,7.5,39.4,22.2a2.19,2.19,0,0,0,1,.9,1.82,1.82,0,0,0,2.5-.7c.1-.1.1-.3.2-.5,4.6-15.7,16.9-26.2,31.8-27.2a1.86,1.86,0,0,0,1.7-1.9,2.64,2.64,0,0,0-1.3-2.6l-.7-.4c-13.9-7.6-29.3-1.6-34.5,13.3a1.46,1.46,0,0,1-.6.9,2,2,0,0,1-2.8-.4c-.1-.1-.1-.2-.2-.3l.2.1A5.58,5.58,0,0,1,813.7,96.8Z" transform="translate(0.05 0.05)"/><path d="M205.3,126.4c-16.4-16.2-36.9-23.5-61.5-21.7a137.59,137.59,0,0,0-63.1,22.5,182.31,182.31,0,0,0-49,47.3A194,194,0,0,0,2.6,235c-3.9,14.3-3.5,25.4,1.2,33.8C8.5,277,17.7,283.4,31.9,288c4.3,1.1,7.8,2.3,10.7,3.1,4.7,1.2,8.1,2.3,10.2,3.7,1.9,1.1,3.1,3.5,3.5,7a125.13,125.13,0,0,1,.2,16.2c-.2,7.3-.2,17.4-.2,30.7a309.82,309.82,0,0,0,9.3,69.1,102.87,102.87,0,0,0,6.2,19.5,91.46,91.46,0,0,0,24,34.8q15.45,13.8,37.5,16.2a71.7,71.7,0,0,0,24-2c.9-.2,1.9-.6,2.7-.8,4.3-1.2,7.7-1.6,10-1.2s5.5,2.9,9.2,7c.9.9,1.7,2.1,2.7,3.1a168.85,168.85,0,0,0,12.5,12.9,60.43,60.43,0,0,0,15,10c7,2.8,13.4,1.6,19.3-3.1a34.53,34.53,0,0,0,11.9-17.6c2.2-6.8.6-12.1-4.3-16-2.3-1.6-4.6-2.9-6.8-4.5a10,10,0,0,0-1.4-.8A106.07,106.07,0,0,1,214,464.4a40.24,40.24,0,0,1-3.7-4.5,8.93,8.93,0,0,1-1-6.6,19.61,19.61,0,0,1,2.5-6c2.8-4.2,5.3-8.4,7.7-12.7a295.58,295.58,0,0,0,27.2-75.2,359.9,359.9,0,0,0,8.6-80.1c-.4-31.7-4.9-61-13.1-88.1S221.7,142.4,205.3,126.4Zm3.4,169.4a422.82,422.82,0,0,1-5.1,61.5,303.37,303.37,0,0,1-15.4,59.4,30,30,0,0,1-1.8,4.1,17.22,17.22,0,0,1-2.2,3.7c-1.6,1.6-2.9,2.2-4.3,1.6a10,10,0,0,1-3.9-2.9,301.36,301.36,0,0,1-19.5-32.8c-2-3.1-4.9-4.3-9-3.9a22.12,22.12,0,0,0-11.1,5.3,13.79,13.79,0,0,0-5.3,10.3c.6,6.4,2.8,14,6.7,22.8,3.9,8.6,7.4,15.8,10.7,21.7a12,12,0,0,1,1.2,2.2c1.2,1.9,2.3,3.9,3.5,6.2a11.07,11.07,0,0,1,1.6,6.2,4.38,4.38,0,0,1-3.3,4.1,18.32,18.32,0,0,1-6.6.6,37.23,37.23,0,0,1-5.7-.8c-13.9-4.7-24.1-14.7-30.3-29.9s-9.6-33.9-10.2-56.4a539.19,539.19,0,0,1,3.5-73c2.9-26.4,6.4-52.9,10.5-79.7.5-7-2.8-12.1-10-15a37.74,37.74,0,0,0-23-1.8c-8,1.8-13.5,6.3-16.2,13.3a122.8,122.8,0,0,0-3.7,27,31,31,0,0,0-.2,4.3c-.2,3.5-.5,7.2-.8,11.1s-1.3,6.4-2.7,7.8c-3.3,2.1-6.8.3-10.5-5.7-3.5-6-5.1-15.4-4.1-28.3.8-13,6-28.9,16.2-47.8a177.12,177.12,0,0,1,17.6-26,139.75,139.75,0,0,1,24.2-23.8,63.2,63.2,0,0,1,28.1-13.1c19.4-2.4,35,4.5,47.1,20.5,11.9,16,20.7,37.3,26,63.9A394.73,394.73,0,0,1,208.7,295.8Z" transform="translate(0.05 0.05)"/><path d="M556.6,328.1q-1.5-22.65-12.9-38.1c-7.7-10.4-19.6-15.5-35.4-15.3-11.4.6-22.9,3.8-34.8,9.8-11.7,5.9-19.9,13.1-24.2,21.9-2,4.9-2,8.6-.4,11.5a26.37,26.37,0,0,0,6.1,6.8,22.58,22.58,0,0,1,2.9,2.5,7.57,7.57,0,0,1,.9,1.8q-4.65,6.75-9.9,13.2a110.45,110.45,0,0,1-18.4,18.4c-6.8,5.2-13.5,7.8-20.1,7.2-5.6-1.1-9.6-4.9-11.5-11.1s-2.7-14-2.3-23.2a192.25,192.25,0,0,1,2.7-28.3c.8-8.4-1.7-14.7-7.4-18.6a27.92,27.92,0,0,0-18.4-4.7c-6.4.6-10.9,3.5-12.9,8.4a219.37,219.37,0,0,0-5.5,24c-1.9,9.9-4.3,20.3-7,31a139.4,139.4,0,0,1-10.5,28.5c-4.5,8.2-10,13.7-16.8,16.4a10.57,10.57,0,0,1-9.6-1.2c-3.2-1.9-5.1-5.6-6.1-11.5a116.63,116.63,0,0,1,1.2-26.4c1.5-9.1,2.7-15.6,3.5-19.1a.73.73,0,0,0,.2-.6c1-7.1-1.3-11.7-7.2-13.9-5.8-2.4-12.3-2.4-19.1-.4-6.9,1.7-11.1,5.4-12.9,10.9-2.1,8.2-2.7,20-2.3,35.2a127,127,0,0,0,8,40.8c4.9,9.6,11.5,15.2,20.1,17s16.4,1.5,23.4-1.2a42.26,42.26,0,0,0,19.5-17.4,115.4,115.4,0,0,0,12.1-26.8c3.1-9.6,5.2-17.6,6.8-24.4,1.2-4.5,1.8-7.2,2.2-8.2.2-.9.4-.6.2,1.6a105.18,105.18,0,0,0,2,13.7,41.68,41.68,0,0,0,9,19.1c4.6,5.8,11.1,9.7,19.3,11.5,13.5,2.7,27.5-1.6,42.2-12.7a124.45,124.45,0,0,0,23.1-23.3c-.3,2.8-.4,5.6-.5,8.5-.4,7.4,1.2,15.6,4.7,24.4,4.3,9.6,10.6,16.4,18.8,20.3a47.28,47.28,0,0,0,26.4,4.5,53.41,53.41,0,0,0,25.8-9.6c8.4-6.5,14.8-16.6,19.5-30.1A115,115,0,0,0,556.6,328.1Zm-42.7,48.6c-6.3,9.6-12.3,13.7-18.2,11.9-5.8-1.5-8.2-10.7-7.2-27.3q.6-4.35,1.8-10.5a132.08,132.08,0,0,0,2.5-18.9c.4-6.3-1-10.8-4.1-13.3-.7-.5-1.5-1-2.2-1.4a27.76,27.76,0,0,1-5.1-3.3,8.81,8.81,0,0,1-3.3-4.9c-.4-2.1.3-4.7,2.3-7.6,6-7.8,12.2-11.3,19.1-10.3s12.5,5.5,17.4,13.5c4.9,8.2,7.4,18.8,7.5,31.9C523.9,353.7,520.3,367.1,513.9,376.7Z" transform="translate(0.05 0.05)"/><path d="M919.5,205.5a971.07,971.07,0,0,0,35.8-99.3c9.1-31.4,14.9-57.7,17.4-78.5.5-9.2-2.8-16-10.1-20.7-7.3-4.5-15.9-6.9-25.9-7a51.3,51.3,0,0,0-26.3,5.9C903,10,899,16.3,899.1,24.5c1.3,28.7-2.9,62.1-12.4,100.3a840.94,840.94,0,0,1-30.2,94.3c-8.9,6.1-20.8,3.7-29.1-6.8l-.3-.4a7.83,7.83,0,0,0-5.9-3.5,6.7,6.7,0,0,0-5.7,2.7c-8.8,11.6-23.9,10.8-33.9-1.6-.2-.2-.4-.5-.6-.7a8,8,0,0,0-5.9-3.5,6.12,6.12,0,0,0-5.7,2.8,20,20,0,0,1-12.1,7.9H757c-.2,0-.4.1-.7.1-.7.1-1.4.1-2.1.2-6.7.2-13.7-3.2-19.1-10.1l-.3-.4a7.83,7.83,0,0,0-5.9-3.5,6.43,6.43,0,0,0-5.7,2.8c-6.6,8.7-16.8,10.4-25.8,5.5a501.2,501.2,0,0,1-1-72.5c1.9-25.6,6.1-48.2,13.3-67.8,1.7-6-.5-11-7-15.2S688,47.9,678,46.4a77,77,0,0,0-27.9.1c-8.5,1.9-14,5.9-16.3,11.9-3.1,16.7-4.2,38.4-3.1,65.4a615.18,615.18,0,0,0,9.8,86.7,518.62,518.62,0,0,0,23.4,88.4c10,27.9,22.8,51.2,38,70,15.3,18.6,33.5,29.3,54,31.9,19.5,1.2,38.9-7.1,58.6-25.3s38.3-42.4,56.3-72.8A809.16,809.16,0,0,0,919.5,205.5ZM802.7,329.6c-15.5,24.7-28.7,37.5-39.1,38.5-10.6-.1-20.3-7.1-29.1-21.2s-16.5-32.5-22.6-55.5c-.4-1.4-.8-2.9-1.1-4.3a24,24,0,0,0,8.1-6.7c9.2,9.5,19.8,12,28.7,7.2a24.51,24.51,0,0,0,7.4-6.2,33.36,33.36,0,0,0,10.1,7.4v-.1c9.3,4.3,18.9,2.2,26-6.5,12,12.4,26.3,12.8,36.1.9a9,9,0,0,1,.9,1A437.75,437.75,0,0,1,802.7,329.6Zm31.8-58.8a24.49,24.49,0,0,1-4.8-5.4c-1.4-2.1-3.1-3.2-4.8-3.2s-3.2,1-4.2,3c-6.2,12.1-18.1,12-26.7-.3l-.2-.4c-1.4-2.1-3.1-3.2-4.8-3.2s-3.2,1-4.2,3c-6.2,12.1-18.1,12-26.7-.3a1.38,1.38,0,0,1-.3-.4c-1.4-2-3.1-3.2-4.8-3.2a4.55,4.55,0,0,0-2,.5l-.1.1c-.1.1-.2.1-.3.2a5.68,5.68,0,0,0-2,2.3c-2.2,4.4-5.2,7.2-8.6,8.3a10.27,10.27,0,0,1-2.4.5v.1c-5.2.6-11-2.4-15.7-9.2l-.3-.4c-1.4-2.1-3.1-3.2-4.8-3.2s-3.2,1-4.2,3a18.71,18.71,0,0,1-6,7.1c-2.9-13.2-5.2-26.6-7-40a31.84,31.84,0,0,0,30.2-6.3c14.4,13.2,32.6,14.4,46.1,3.1a41.36,41.36,0,0,0,12.5,8.1v-.1a31.83,31.83,0,0,0,33.6-5.1c7.9,7.3,17.1,10.9,26,10.8Q841.25,256.4,834.5,270.8Z" transform="translate(0.05 0.05)"/><path d="M1232.6,108a45.57,45.57,0,0,0-19.1.4c-5.5,1.2-8.3,6.7-7.5,16.4-7.6,42.1-13.7,70.6-18.8,85.6a174,174,0,0,1-17.8,39c-7,10.9-16.1,17.1-27.4,18.2q-29.25,2.55-51.4,23.3c-14.8,14-25.4,29.9-31.8,48-.3.9-.6,1.7-.9,2.6-1.4,2-2.8,3.9-4.2,5.9a181.74,181.74,0,0,1-21.9,24.5c-7,6.3-12.4,9-16.6,8.3-3.8-1.4-5.7-5.3-6.2-11.7a113.33,113.33,0,0,1,1.1-21c1.2-7.5,2.2-13.7,3.2-18.3a40.78,40.78,0,0,0,1-4.6c0-7.4-2.1-12.8-6.8-16.6a50.36,50.36,0,0,0-14.4-8.7c-4.6-2-7.7-4-9.3-6.1-.9-2.3-1.2-5.9-.6-10.4a43.17,43.17,0,0,0-1-15.6c-1.5-5.4-6-9.7-13.7-13.2-12.4-4.4-24.3-4-35.7,1.4-11.4,5.2-21.3,13.7-29.9,24.9a115.43,115.43,0,0,0-19.1,36.2c-4.1,13-5.3,24.9-3.5,35.5,2,10.7,7.6,18.1,17.2,22.5,10.5,3.5,20,2,28.7-4.7a134.62,134.62,0,0,0,23.3-23.2,141.89,141.89,0,0,1,11.7-12.9c3.5-3.6,7-5.4,10-5.5,4.1.3,6.4,2.9,6.8,7.7a91.38,91.38,0,0,1-.6,18.1,142.7,142.7,0,0,0-1.2,22.6c.3,7.8,2.1,14.6,5.9,20.6,3.7,6.2,10.4,10.3,20.1,12.5,9.3,1.3,19.5-3.3,30.8-13.9a241.56,241.56,0,0,0,21.2-22.9,60.8,60.8,0,0,0,3.6,14.7c3.1,6.4,8.5,10.9,15.9,13.7a33.46,33.46,0,0,0,22.3.3c4.9-2.2,10.6-6.6,16.7-13.5a150.55,150.55,0,0,0,16.8-22.2c4.9-7.9,8.7-14.2,11.6-18.7,11.3-19,19.4-33.5,24.4-43.2,3.5-8.3,6.2-12.2,7.6-11.4,1.7.7.5,11.5-3.2,32.5-3.9,21-11.1,55-21.4,102.4-.4,7.2,2.1,12.4,7.7,15.5s11,4.2,16.1,3.3c5.2-.7,8.4-2.9,9.6-6.7,3.1-22.3,9.5-62.2,19.2-120.2s24-124.9,42.6-201C1243.3,112.6,1239.8,109,1232.6,108ZM964.1,299.5c-1.2,2.2-4.7,6.9-10.3,14.1A226,226,0,0,1,935,334q-10.2,9.6-17.7,9.9c-4.4-1.2-5.5-6.3-3.2-15.4,2.1-9.4,6.7-18.9,13.3-28.9,6.8-9.8,14.6-16.4,23.8-19.2,5.8-1.4,10.4-.2,13.3,3.6C967.4,287.6,967.2,292.7,964.1,299.5Zm179.7-2.9c-.8,7.4-5,17-12.4,29.2a227,227,0,0,1-23.4,32.5c-8.6,9.5-14.7,14-18.8,13.9-5.9-2.1-8.1-8.4-6.1-19s7-21.8,15.1-33.7a81.23,81.23,0,0,1,30.7-27.2C1139.7,287.8,1144.6,289.2,1143.8,296.6Z" transform="translate(0.05 0.05)"/><path d="M1361.6,395.3c8.3-5.7,15.6-9.3,21.9-10.4,6.6-1.8,9.4-6.7,8.5-14.4q-1.05-11.4-10.2-20.7c-6-5.9-13.4-7.4-22.3-4.1-10,5.1-20.7,14.8-31.6,29a120,120,0,0,0-14.1,23,170.06,170.06,0,0,1-26.2,28c-12.8,10.5-22.6,14.7-29.2,12.4-6.6-3.3-10.3-8.4-10.9-15.7a64.66,64.66,0,0,1,2.9-23.5,205.91,205.91,0,0,1,7.7-22.5c.7-1.7,1.1-3.2,1.8-4.7,1.8-6.2,0-10.9-5.2-13.9-5.5-2.9-11.5-3.7-18.4-2.7-6.7,1.3-11.5,5-14.1,11.1a174.19,174.19,0,0,0-8,31.2,88.24,88.24,0,0,0-.1,32.8,37.07,37.07,0,0,0,15.3,24.7c10.2,6.5,21,8.5,32.3,6s24-10.9,38.1-25.3c3.5-3.5,6.9-7.1,10.1-10.8a31.82,31.82,0,0,0,6.5,11.8,98.27,98.27,0,0,0,17.9,16.2,13,13,0,0,0,2.3,1.8,85,85,0,0,1,11.6,10c3.7,4,5.3,8.2,5,12.7-1,5-3.6,8.1-7.6,9.8a25,25,0,0,1-12.7,1.5,70.57,70.57,0,0,1-9.2-1.5c-2.1-.8-4-1.4-5.8-2.2s-3.9-1.3-5.8-2c-3.2-.7-5.7-.2-7.6,1.7a8.69,8.69,0,0,0-2,7.4,8.57,8.57,0,0,0,.5,2.7,16,16,0,0,0,1,2.3,32,32,0,0,0,13,13.3,59,59,0,0,0,17.4,7.3,47.79,47.79,0,0,0,30.7-3.8c10.3-4.6,17.1-12,20.4-22.5,1.1-6.6-.6-13.4-5.2-20.1a171.46,171.46,0,0,0-16.3-19.8,130.33,130.33,0,0,1-14.1-16.6c-3.9-5.4-5.4-10.5-4.7-15.3C1348,409.3,1353.3,401,1361.6,395.3Z" transform="translate(0.05 0.05)"/><path d="M1311.8,246.2a208.75,208.75,0,0,0,29.8-24,374.13,374.13,0,0,0,29.4-31c8.4-10.3,13.8-18.1,16.2-24,3.8-12.4.7-23.4-9.4-32.7-9.9-9.7-22.1-15.1-36.7-16.4-14.3-.7-26.1,4.9-35.8,17.5-4.1,6.8-8.5,18.5-12.3,34a282.57,282.57,0,0,0-7.3,47.5c-.8,16,1.7,27.3,7.3,33.7C1296.5,253.8,1302.5,252.2,1311.8,246.2Zm26.7-98.6a16.5,16.5,0,1,1-16.5,16.5A16.52,16.52,0,0,1,1338.5,147.6Z" transform="translate(0.05 0.05)"/><path d="M1266.5,287.1l-.3.4h.1Z" transform="translate(0.05 0.05)"/><path d="M1266.2,287.6Z" transform="translate(0.05 0.05)"/><path d="M1239.2,330.2a10.53,10.53,0,0,0,19.3,8.4,10.34,10.34,0,0,0-5.5-13.7A10.57,10.57,0,0,0,1239.2,330.2Z" transform="translate(0.05 0.05)"/><path d="M1250,309a10.48,10.48,0,0,0,13.8-5.3,10.34,10.34,0,0,0-5.5-13.7,10.37,10.37,0,1,0-8.3,19Z" transform="translate(0.05 0.05)"/><path d="M1269.4,279.7a10.48,10.48,0,0,0,13.8-5.3,10.34,10.34,0,0,0-5.5-13.7,10.37,10.37,0,1,0-8.3,19Z" transform="translate(0.05 0.05)"/></svg>