<svg id="Warstwa_1" data-name="Warstwa 1" xmlns="http://www.w3.org/2000/svg" viewBox="0 0 13.92 10"><title>burgermenu</title><path d="M6.35,7H17.73A1.16,1.16,0,0,1,19,8a1.16,1.16,0,0,1-1.27,1H6.35A1.16,1.16,0,0,1,5.08,8,1.16,1.16,0,0,1,6.35,7Zm0,8H17.73A1.16,1.16,0,0,1,19,16a1.16,1.16,0,0,1-1.27,1H6.35a1.16,1.16,0,0,1-1.27-1A1.16,1.16,0,0,1,6.35,15Zm0-4H17.73A1.16,1.16,0,0,1,19,12a1.16,1.16,0,0,1-1.27,1H6.35a1.16,1.16,0,0,1-1.27-1A1.16,1.16,0,0,1,6.35,11Z" transform="translate(-5.08 -7)"/></svg>